<svg width="9" height="6" viewBox="0 0 9 6" fill="none" xmlns="http://www.w3.org/2000/svg">
<path d="M7.93613 0.327374L4.50001 4.28587L1.06388 0.327374C1.00249 0.256506 0.920075 0.216831 0.834257 0.216831C0.748438 0.216831 0.666024 0.256506 0.604632 0.327374C0.574906 0.361795 0.55129 0.40288 0.535168 0.448222C0.519046 0.493565 0.510742 0.542254 0.510742 0.591437C0.510742 0.64062 0.519046 0.689308 0.535168 0.734651C0.55129 0.779993 0.574906 0.821078 0.604632 0.855499L4.26007 5.0675C4.32426 5.14145 4.41036 5.18283 4.50001 5.18283C4.58965 5.18283 4.67575 5.14145 4.73994 5.0675L8.39538 0.856312C8.42532 0.821865 8.44911 0.780679 8.46536 0.735186C8.4816 0.689694 8.48997 0.640815 8.48997 0.591437C8.48997 0.542058 8.4816 0.493179 8.46536 0.447686C8.44911 0.402194 8.42532 0.361008 8.39538 0.326561C8.33399 0.255693 8.25158 0.216019 8.16576 0.216019C8.07994 0.216019 7.99752 0.255693 7.93613 0.326561V0.327374Z" fill="#111111"/>
</svg>
